<?xml version="1.0" standalone="no"?>
<!DOCTYPE svg PUBLIC "-//W3C//DTD SVG 20010904//EN"
 "http://www.w3.org/TR/2001/REC-SVG-20010904/DTD/svg10.dtd">
<svg version="1.0" xmlns="http://www.w3.org/2000/svg"
 width="260.000000pt" height="260.000000pt" viewBox="0 0 260.000000 260.000000"
 preserveAspectRatio="xMidYMid meet">
<metadata>
Created by potrace 1.11, written by Peter Selinger 2001-2013
</metadata>
<g transform="translate(0.000000,260.000000) scale(0.100000,-0.100000)"
fill="#000000" stroke="none">
<path d="M219 1718 c-1 -2 -2 -151 -3 -333 -3 -366 -1 -376 59 -401 19 -8 57
-14 85 -14 48 0 50 1 51 28 0 15 1 77 2 137 l2 110 95 2 c52 0 110 2 128 2
l32 1 0 90 0 90 -131 0 -130 0 3 53 3 52 150 2 c83 2 159 1 171 -2 21 -5 21
-9 22 -257 0 -139 1 -266 1 -281 l1 -28 98 3 97 3 0 135 0 135 110 2 c61 1
119 2 130 2 18 1 20 7 18 63 -1 35 -2 75 -2 91 l-1 27 -125 0 c-69 0 -126 3
-126 8 -1 4 -2 28 -3 53 l-2 46 152 1 153 0 20 -67 c11 -36 48 -160 81 -275
33 -115 63 -213 66 -218 4 -7 224 -11 224 -4 0 0 9 30 19 66 11 36 35 121 55
190 49 166 47 162 52 157 4 -4 90 -288 114 -375 l11 -41 113 1 113 1 57 196
c68 236 60 207 75 261 7 25 28 96 47 159 19 62 34 118 34 123 0 6 -34 9 -84 7
-125 -6 -118 5 -197 -302 -24 -92 -46 -161 -50 -155 -3 7 -12 36 -18 63 -7 28
-15 57 -18 65 -4 8 -7 20 -8 26 -2 7 -20 70 -40 140 -20 71 -38 136 -39 144
-2 12 -24 16 -108 18 l-105 3 -63 -231 c-35 -126 -67 -230 -71 -230 -3 0 -9
12 -13 28 -3 15 -24 97 -46 182 -23 85 -47 175 -53 200 l-12 45 -597 3 c-329
1 -599 1 -599 0z"/>
<path d="M2180 1070 c0 -5 8 -10 18 -10 15 0 18 -7 17 -32 -3 -38 3 -58 16
-58 5 0 9 20 9 45 0 33 4 45 15 45 8 0 15 5 15 10 0 6 -20 10 -45 10 -25 0
-45 -4 -45 -10z"/>
<path d="M2282 1025 c1 -60 19 -71 28 -19 l6 29 7 -27 c4 -16 12 -28 17 -28 5
0 16 12 24 28 l15 27 1 -32 c0 -18 5 -33 10 -33 6 0 10 25 10 55 0 65 -22 76
-45 23 l-14 -33 -11 33 c-8 20 -19 32 -30 32 -15 0 -18 -8 -18 -55z"/>
</g>
</svg>
